<?xml version="1.0" encoding="UTF-8" standalone="no"?>
<!-- Generated by IcoMoon.io -->

<svg
   xmlns:osb="http://www.openswatchbook.org/uri/2009/osb"
   xmlns:dc="http://purl.org/dc/elements/1.1/"
   xmlns:cc="http://creativecommons.org/ns#"
   xmlns:rdf="http://www.w3.org/1999/02/22-rdf-syntax-ns#"
   xmlns:svg="http://www.w3.org/2000/svg"
   xmlns="http://www.w3.org/2000/svg"
   xmlns:xlink="http://www.w3.org/1999/xlink"
   xmlns:sodipodi="http://sodipodi.sourceforge.net/DTD/sodipodi-0.dtd"
   xmlns:inkscape="http://www.inkscape.org/namespaces/inkscape"
   version="1.1"
   width="32"
   height="32"
   viewBox="0 0 32 32"
   id="svg3388"
   inkscape:version="0.91 r13725"
   sodipodi:docname="books.svg">
  <metadata
     id="metadata3400">
    <rdf:RDF>
      <cc:Work
         rdf:about="">
        <dc:format>image/svg+xml</dc:format>
        <dc:type
           rdf:resource="http://purl.org/dc/dcmitype/StillImage" />
        <dc:title />
      </cc:Work>
    </rdf:RDF>
  </metadata>
  <defs
     id="defs3398">
    <linearGradient
       id="linearGradient5738"
       osb:paint="solid">
      <stop
         style="stop-color:#000000;stop-opacity:1;"
         offset="0"
         id="stop5740" />
    </linearGradient>
    <linearGradient
       id="linearGradient5732"
       osb:paint="solid">
      <stop
         style="stop-color:#000000;stop-opacity:1;"
         offset="0"
         id="stop5734" />
    </linearGradient>
    <linearGradient
       id="linearGradient5726"
       osb:paint="solid">
      <stop
         style="stop-color:#000000;stop-opacity:1;"
         offset="0"
         id="stop5728" />
    </linearGradient>
    <linearGradient
       id="linearGradient5708"
       osb:paint="solid">
      <stop
         style="stop-color:#000000;stop-opacity:1;"
         offset="0"
         id="stop5710" />
    </linearGradient>
    <linearGradient
       id="linearGradient5690"
       osb:paint="solid">
      <stop
         style="stop-color:#000000;stop-opacity:1;"
         offset="0"
         id="stop5692" />
    </linearGradient>
    <linearGradient
       id="linearGradient5684"
       osb:paint="solid">
      <stop
         style="stop-color:#000000;stop-opacity:1;"
         offset="0"
         id="stop5686" />
    </linearGradient>
    <linearGradient
       id="linearGradient5666"
       osb:paint="solid">
      <stop
         style="stop-color:#000000;stop-opacity:1;"
         offset="0"
         id="stop5668" />
    </linearGradient>
    <linearGradient
       id="linearGradient5660"
       osb:paint="solid">
      <stop
         style="stop-color:#000000;stop-opacity:1;"
         offset="0"
         id="stop5662" />
    </linearGradient>
    <linearGradient
       inkscape:collect="always"
       xlink:href="#linearGradient5732"
       id="linearGradient5736"
       x1="10"
       y1="16"
       x2="18"
       y2="16"
       gradientUnits="userSpaceOnUse"
       gradientTransform="matrix(0.88621209,0,0,0.93504849,0.74772437,1.3310473)" />
    <linearGradient
       inkscape:collect="always"
       xlink:href="#linearGradient5738"
       id="linearGradient5742"
       x1="18.001438"
       y1="16.7195"
       x2="34.357563"
       y2="16.7195"
       gradientUnits="userSpaceOnUse"
       gradientTransform="matrix(0.89288066,0,0,0.90095195,0.82798992,2.0351796)" />
  </defs>
  <sodipodi:namedview
     pagecolor="#ffffff"
     bordercolor="#666666"
     borderopacity="1"
     objecttolerance="10"
     gridtolerance="10"
     guidetolerance="10"
     inkscape:pageopacity="0"
     inkscape:pageshadow="2"
     inkscape:window-width="1432"
     inkscape:window-height="803"
     id="namedview3396"
     showgrid="false"
     inkscape:snap-nodes="true"
     inkscape:snap-bbox="false"
     inkscape:bbox-paths="false"
     inkscape:bbox-nodes="false"
     inkscape:snap-bbox-edge-midpoints="false"
     inkscape:object-paths="false"
     inkscape:snap-object-midpoints="false"
     inkscape:snap-center="false"
     inkscape:snap-text-baseline="true"
     inkscape:snap-page="true"
     inkscape:snap-grids="false"
     inkscape:snap-to-guides="false"
     inkscape:snap-global="true"
     inkscape:zoom="13.280349"
     inkscape:cx="12.713727"
     inkscape:cy="15.68792"
     inkscape:window-x="0"
     inkscape:window-y="0"
     inkscape:window-maximized="0"
     inkscape:current-layer="svg3388" />
  <path
     d="m 6.9535193,4.9644759 -5.3172689,0 c -0.4874163,0 -0.88621153,0.420777 -0.88621153,0.9350597 l 0,20.5713164 c 0,0.514282 0.39879523,0.935059 0.88621153,0.935059 l 5.3172689,0 c 0.4874164,0 0.8862115,-0.420777 0.8862115,-0.935059 l 0,-20.5713164 c 0,-0.5142827 -0.3987951,-0.9350597 -0.8862115,-0.9350597 z m -0.8862114,5.6103591 -3.544846,0 0,-1.8701205 3.544846,0 0,1.8701205 z"
     id="path3390"
     style="fill:none;fill-opacity:1;stroke:#000000;stroke-width:0.91030806;stroke-opacity:1"
     inkscape:connector-curvature="0"
     inkscape:transform-center-x="0.66060362"
     inkscape:transform-center-y="-0.14936063" />
  <path
     d="m 15.813329,5.0712408 -5.317273,0 c -0.487416,0 -0.8862116,0.4207718 -0.8862116,0.9350483 l 0,20.5710659 c 0,0.514276 0.3987956,0.935048 0.8862116,0.935048 l 5.317273,0 c 0.487417,0 0.886212,-0.420772 0.886212,-0.935048 l 0,-20.5710659 c 0,-0.5142765 -0.398795,-0.9350483 -0.886212,-0.9350483 z m -0.886212,5.6102902 -3.544849,0 0,-1.8700959 3.544849,0 0,1.8700959 z"
     id="path3392"
     style="fill:none;stroke:url(#linearGradient5736);stroke-width:0.91030276"
     inkscape:connector-curvature="0" />
  <path
     d="M 22.175875,7.0318594 17.39182,9.4644292 c -0.438405,0.2225356 -0.61698,0.7676128 -0.395546,1.2099788 l 8.035033,16.091904 c 0.220542,0.442367 0.760734,0.622559 1.199138,0.399122 l 4.784056,-2.432571 c 0.438405,-0.222535 0.61698,-0.767611 0.395546,-1.209978 L 23.375014,7.4309811 C 23.154472,6.9886137 22.614279,6.8084233 22.175875,7.0318594 Z"
     id="path3394"
     style="fill:none;stroke:url(#linearGradient5742);stroke-width:0.89690727"
     inkscape:connector-curvature="0" />
  <path
     d="M 7,4 1,4 C 0.45,4 0,4.45 0,5 l 0,22 c 0,0.55 0.45,1 1,1 l 6,0 c 0.55,0 1,-0.45 1,-1 L 8,5 C 8,4.45 7.55,4 7,4 Z m -1,6 -4,0 0,-2 4,0 0,2 z"
     id="path4206"
     style="fill:none;fill-opacity:1"
     inkscape:connector-curvature="0" />
</svg>
