<?xml version="1.0" encoding="UTF-8" standalone="no"?>
<!-- Generated by IcoMoon.io -->

<svg
   xmlns:osb="http://www.openswatchbook.org/uri/2009/osb"
   xmlns:dc="http://purl.org/dc/elements/1.1/"
   xmlns:cc="http://creativecommons.org/ns#"
   xmlns:rdf="http://www.w3.org/1999/02/22-rdf-syntax-ns#"
   xmlns:svg="http://www.w3.org/2000/svg"
   xmlns="http://www.w3.org/2000/svg"
   xmlns:xlink="http://www.w3.org/1999/xlink"
   xmlns:sodipodi="http://sodipodi.sourceforge.net/DTD/sodipodi-0.dtd"
   xmlns:inkscape="http://www.inkscape.org/namespaces/inkscape"
   version="1.1"
   width="32"
   height="32"
   viewBox="0 0 32 32"
   id="svg3424"
   inkscape:version="0.91 r13725"
   sodipodi:docname="office.svg">
  <metadata
     id="metadata3432">
    <rdf:RDF>
      <cc:Work
         rdf:about="">
        <dc:format>image/svg+xml</dc:format>
        <dc:type
           rdf:resource="http://purl.org/dc/dcmitype/StillImage" />
      </cc:Work>
    </rdf:RDF>
  </metadata>
  <defs
     id="defs3430">
    <linearGradient
       id="linearGradient4236"
       osb:paint="solid">
      <stop
         style="stop-color:#000000;stop-opacity:1;"
         offset="0"
         id="stop4238" />
    </linearGradient>
    <linearGradient
       inkscape:collect="always"
       xlink:href="#linearGradient4236"
       id="linearGradient4240"
       x1="0"
       y1="16"
       x2="32"
       y2="16"
       gradientUnits="userSpaceOnUse"
       gradientTransform="matrix(0.96969699,0,0,0.969697,0.52722137,0.49863986)" />
  </defs>
  <sodipodi:namedview
     pagecolor="#ffffff"
     bordercolor="#666666"
     borderopacity="1"
     objecttolerance="10"
     gridtolerance="10"
     guidetolerance="10"
     inkscape:pageopacity="0"
     inkscape:pageshadow="2"
     inkscape:window-width="1441"
     inkscape:window-height="794"
     id="namedview3428"
     showgrid="false"
     inkscape:snap-page="false"
     inkscape:zoom="10.429825"
     inkscape:cx="-4.2711864"
     inkscape:cy="16"
     inkscape:window-x="2"
     inkscape:window-y="1"
     inkscape:window-maximized="0"
     inkscape:current-layer="svg3424" />
  <path
     d="m 0.52722137,31.528943 15.51515263,0 0,-31.03030315 -15.51515263,0 0,31.03030315 z M 10.224191,4.3774278 l 3.878788,0 0,3.8787879 -3.878788,0 0,-3.8787879 z m 0,7.7575762 3.878788,0 0,3.878787 -3.878788,0 0,-3.878787 z m 0,7.757576 3.878788,0 0,3.878788 -3.878788,0 0,-3.878788 z M 2.4666154,4.3774278 l 3.8787877,0 0,3.8787879 -3.8787877,0 0,-3.8787879 z m 0,7.7575762 3.8787877,0 0,3.878787 -3.8787877,0 0,-3.878787 z m 0,7.757576 3.8787877,0 0,3.878788 -3.8787877,0 0,-3.878788 z m 15.5151516,-9.69697 13.575758,0 0,1.939394 -13.575758,0 z m 0,21.333333 3.878788,0 0,-7.757575 5.818183,0 0,7.757575 3.878787,0 0,-17.454546 -13.575758,0 z"
     id="path3426"
     style="fill:none;stroke:url(#linearGradient4240);stroke-width:0.969697"
     inkscape:connector-curvature="0" />
</svg>
